<svg width="50" height="50" viewBox="0 0 50 50" fill="none" xmlns="http://www.w3.org/2000/svg">
<g id="instagram">
<path id="Vector" d="M35.4167 4.16675H14.5833C8.83036 4.16675 4.16666 8.83045 4.16666 14.5834V35.4167C4.16666 41.1697 8.83036 45.8334 14.5833 45.8334H35.4167C41.1696 45.8334 45.8333 41.1697 45.8333 35.4167V14.5834C45.8333 8.83045 41.1696 4.16675 35.4167 4.16675Z" stroke="white" stroke-width="2" stroke-linecap="round" stroke-linejoin="round"/>
<path id="Vector_2" d="M33.3333 23.6874C33.5905 25.4212 33.2943 27.192 32.487 28.7478C31.6797 30.3037 30.4024 31.5653 28.8367 32.3534C27.2711 33.1414 25.4968 33.4157 23.7662 33.1373C22.0357 32.8588 20.437 32.0417 19.1976 30.8023C17.9582 29.5629 17.1411 27.9642 16.8627 26.2337C16.5842 24.5031 16.8585 22.7288 17.6465 21.1632C18.4346 19.5975 19.6962 18.3202 21.2521 17.5129C22.8079 16.7056 24.5787 16.4095 26.3125 16.6666C28.0811 16.9288 29.7185 17.7529 30.9827 19.0172C32.247 20.2815 33.0711 21.9188 33.3333 23.6874Z" stroke="white" stroke-width="2" stroke-linecap="round" stroke-linejoin="round"/>
<path id="Vector_3" d="M36.4583 13.5417H36.4791" stroke="white" stroke-width="2" stroke-linecap="round" stroke-linejoin="round"/>
</g>
</svg>
