<svg width="40" height="40" viewBox="0 0 40 40" fill="none" xmlns="http://www.w3.org/2000/svg">
<g id="twemoji:flag-nigeria">
<path id="Vector" d="M4.44444 5.55556C3.2657 5.55556 2.13524 6.02381 1.30175 6.8573C0.468253 7.6908 0 8.82126 0 10L0 30C0 31.1787 0.468253 32.3092 1.30175 33.1427C2.13524 33.9762 3.2657 34.4444 4.44444 34.4444H13.3333V5.55556H4.44444Z" fill="#009A49"/>
<path id="Vector_2" d="M13.3333 5.55556H26.6666V34.4444H13.3333V5.55556Z" fill="#EEEEEE"/>
<path id="Vector_3" d="M35.5556 5.55556H26.6667V34.4444H35.5556C36.7343 34.4444 37.8648 33.9762 38.6983 33.1427C39.5318 32.3092 40 31.1787 40 30V10C40 8.82126 39.5318 7.6908 38.6983 6.8573C37.8648 6.02381 36.7343 5.55556 35.5556 5.55556Z" fill="#009A49"/>
</g>
</svg>
