<svg width="50" height="49" viewBox="0 0 50 49" fill="none" xmlns="http://www.w3.org/2000/svg">
<g id="users" clip-path="url(#clip0_0_141)">
<path id="Vector" d="M35.2911 42.3555V38.2806C35.2911 36.1192 34.4324 34.0463 32.9041 32.5179C31.3757 30.9895 29.3028 30.1309 27.1414 30.1309H10.842C8.68056 30.1309 6.60766 30.9895 5.07929 32.5179C3.55093 34.0463 2.69231 36.1192 2.69231 38.2806V42.3555" stroke="white" stroke-width="2.99376" stroke-linecap="round" stroke-linejoin="round"/>
<path id="Vector_2" d="M18.9917 21.9812C23.4926 21.9812 27.1414 18.3325 27.1414 13.8315C27.1414 9.33056 23.4926 5.68182 18.9917 5.68182C14.4907 5.68182 10.842 9.33056 10.842 13.8315C10.842 18.3325 14.4907 21.9812 18.9917 21.9812Z" stroke="white" stroke-width="2.99376" stroke-linecap="round" stroke-linejoin="round"/>
<path id="Vector_3" d="M47.5156 42.3554V38.2806C47.5142 36.4749 46.9132 34.7207 45.8069 33.2936C44.7006 31.8665 43.1517 30.8472 41.4033 30.3958" stroke="white" stroke-width="2.99376" stroke-linecap="round" stroke-linejoin="round"/>
<path id="Vector_4" d="M33.2536 5.94666C35.0067 6.3955 36.5604 7.41503 37.67 8.8445C38.7796 10.274 39.3819 12.0321 39.3819 13.8417C39.3819 15.6512 38.7796 17.4094 37.67 18.8388C36.5604 20.2683 35.0067 21.2878 33.2536 21.7367" stroke="white" stroke-width="2.99376" stroke-linecap="round" stroke-linejoin="round"/>
</g>
<defs>
<clipPath id="clip0_0_141">
<rect width="48.8981" height="48.8981" fill="white" transform="translate(0.654884 -0.430359)"/>
</clipPath>
</defs>
</svg>
